<?xml version="1.0"?>
<svg id="Livello_1" data-name="Livello 1" xmlns="http://www.w3.org/2000/svg" width="354" height="184" viewBox="0 0 354 184"> <defs> <style> .cls-1 { fill: #adafb4; } .cls-2 { fill: #005eb8; } </style> </defs> <title>-----i3</title> <g> <rect class="cls-1" x="60.22" y="62.84" width="11.12" height="58.39"></rect> <polygon class="cls-1" points="151.98 62.84 151.98 73.96 168.66 73.96 168.66 121.23 179.78 121.23 179.78 73.96 196.46 73.96 196.46 62.84 151.98 62.84"></polygon> <path class="cls-1" d="M138.07,85a22.24,22.24,0,1,0-44.48,0v36.22h11.12V85A11.12,11.12,0,0,1,127,85v36.22h11.12Z"></path> <path class="cls-1" d="M234,74a11.12,11.12,0,0,0-11.12,11.12v36.15H211.76V85.08A22.24,22.24,0,0,1,234,62.84h5.56V74Z"></path> <path class="cls-2" d="M293.78,80.22A17.4,17.4,0,0,0,276.4,62.84H257.63V74H276.4a6.26,6.26,0,1,1,0,12.51H257.63V97.59H276.4a6.26,6.26,0,1,1,0,12.52H257.63v11.12H276.4A17.37,17.37,0,0,0,289.13,92,17.3,17.3,0,0,0,293.78,80.22Z"></path> </g> </svg> 